<svg width="64" height="64" viewBox="0 0 64 64" fill="none" xmlns="http://www.w3.org/2000/svg">
  <defs>
    <linearGradient id="fav-bg" x1="8" y1="6" x2="55" y2="57" gradientUnits="userSpaceOnUse">
      <stop stop-color="#2DC7B6"/>
      <stop offset="1" stop-color="#1A7DAF"/>
    </linearGradient>
    <linearGradient id="fav-accent" x1="40" y1="14" x2="58" y2="28" gradientUnits="userSpaceOnUse">
      <stop stop-color="#F4B15D"/>
      <stop offset="1" stop-color="#F7D38C"/>
    </linearGradient>
  </defs>

  <rect x="4" y="4" width="56" height="56" rx="14" fill="url(#fav-bg)"/>
  <rect x="39" y="12" width="18" height="18" rx="6" fill="url(#fav-accent)"/>
  <path d="M17 18.5C17 16.8431 18.3431 15.5 20 15.5H41C42.6569 15.5 44 16.8431 44 18.5V47C44 48.6569 42.6569 50 41 50H20C18.3431 50 17 48.6569 17 47V18.5Z" fill="#072237" fill-opacity="0.82"/>
  <rect x="22" y="22" width="17" height="3.2" rx="1.6" fill="#2DC7B6"/>
  <rect x="22" y="28" width="14" height="3.2" rx="1.6" fill="#74E0D5"/>
  <rect x="22" y="34" width="10" height="3.2" rx="1.6" fill="#A2EDE5"/>
  <path d="M27.4334 45.4C27.0173 45.4 26.6173 45.2346 26.3231 44.9404L23.0567 41.674C22.45 41.0673 22.45 40.0837 23.0567 39.477C23.6634 38.8703 24.647 38.8703 25.2537 39.477L27.4334 41.6567L33.6964 35.3937C34.3031 34.787 35.2867 34.787 35.8934 35.3937C36.5001 36.0004 36.5001 36.984 35.8934 37.5907L28.5436 44.9404C28.2494 45.2346 27.8495 45.4 27.4334 45.4Z" fill="#F4B15D"/>
</svg>
